<?xml version="1.0" encoding="iso-8859-1"?>
<!-- Generator: Adobe Illustrator 19.0.0, SVG Export Plug-In . SVG Version: 6.00 Build 0)  -->
<svg fill="#ffffff" version="1.1" id="Capa_1" xmlns="http://www.w3.org/2000/svg" xmlns:xlink="http://www.w3.org/1999/xlink" x="0px" y="0px"
	 viewBox="0 0 512 512" style="enable-background:new 0 0 512 512;" xml:space="preserve">
<g>
	<g>
		<path d="M422,210.5v-30h-60v-45h-30v45h-60v-45h-88.487C190.925,154.242,195,174.654,195,196c0,20.969-3.94,41.032-11.105,59.5
			H272v-45h60v26.381l-31,60.5V361h91v-63.515l-30-60.5V210.5H422z"/>
	</g>
</g>
<g>
	<g>
		<polygon points="60,391 60,436 30,436 30,391 0,391 0,451 30,451 30,481 60,481 60,451 452,451 452,481 482,481 482,451 512,451 
			512,391 		"/>
	</g>
</g>
<g>
	<g>
		<path d="M120,95.47v201.06c27.601-24.736,45-60.637,45-100.53S147.601,120.206,120,95.47z"/>
	</g>
</g>
<g>
	<g>
		<rect y="31" width="30" height="330"/>
	</g>
</g>
<g>
	<g>
		<rect x="60" y="31" width="30" height="330"/>
	</g>
</g>
<g>
	<g>
		<polygon points="422,301 422,331 452,331 452,361 482,361 482,331 512,331 512,301 		"/>
	</g>
</g>
<g>
</g>
<g>
</g>
<g>
</g>
<g>
</g>
<g>
</g>
<g>
</g>
<g>
</g>
<g>
</g>
<g>
</g>
<g>
</g>
<g>
</g>
<g>
</g>
<g>
</g>
<g>
</g>
<g>
</g>
</svg>
